<svg width="24" height="24" viewBox="0 0 24 24" xmlns="http://www.w3.org/2000/svg">
  <path fill="#C5C5C5" d="M21 3H3C1.89 3 1 3.89 1 5V19C1 20.11 1.89 21 3 21H21C22.11 21 23 20.11 23 19V5C23 3.89 22.11 3 21 3M8.5 14.21C7.1 14.21 6 13.11 6 11.71S7.1 9.21 8.5 9.21 11 10.31 11 11.71 9.9 14.21 8.5 14.21M16.25 14.21C15.67 14.21 15.12 14.04 14.67 13.75C14.53 13.05 14.26 12.39 13.88 11.79C14.21 10.66 15.24 9.83 16.5 9.83C18.05 9.83 19.3 11.08 19.3 12.63S18.05 15.42 16.5 15.42C16.41 15.42 16.32 15.41 16.25 15.4V14.21Z" />
</svg> 